<!-- icon666.com - MILLIONS vector ICONS FREE --><svg viewBox="0 0 49 59" xmlns="http://www.w3.org/2000/svg"><g id="Page-1" fill="none" fill-rule="evenodd"><g id="073---Book"><path id="Path" d="m48 46v11c0 .5522847-.4477153 1-1 1h-5v-12z" fill="#802f34"></path><path id="Path" d="m44 46v12h-38c-3.31165334-.0049563-5.99504366-2.6883467-6-6 0-.17.01-.34.02-.5.2641564-3.1073187 2.86147582-5.4961576 5.98-5.5z" fill="#f5efca"></path><path id="Path" d="m49 1v45h-42v-46h41c.5522847 0 1 .44771525 1 1z" fill="#e64c3c"></path><path id="Path" d="m24.4 7.257 1.19-1.808c.1851923-.28047915.4988977-.44916626.835-.449h3.15c.3361023-.00016626.6498077.16852085.835.449l1.19 1.808 4.273 1.77 2.127-.434c.3291426-.06764578.6702554.03453778.908.272l2.228 2.228c.2374622.2377446.3396458.5788574.272.908l-.434 2.122 1.77 4.273 1.808 1.194c.2804792.1851923.4491663.4988977.449.835v3.15c.0001663.3361023-.1685208.6498077-.449.835l-1.809 1.19-1.77 4.273.434 2.127c.0676458.3291426-.0345378.6702554-.272.908l-2.228 2.228c-.2377446.2374622-.5788574.3396458-.908.272l-2.122-.434-4.277 1.769-1.19 1.808c-.1851923.2804792-.4988977.4491663-.835.449h-3.15c-.3361023.0001663-.6498077-.1685208-.835-.449l-1.19-1.808-4.273-1.77-2.127.434c-.3291426.0676458-.6702554-.0345378-.908-.272l-2.228-2.228c-.236772-.2377255-.3385457-.5783482-.271-.907l.434-2.122-1.77-4.278-1.808-1.19c-.2804792-.1851923-.4491663-.4988977-.449-.835v-3.15c-.0001663-.3361023.1685208-.6498077.449-.835l1.808-1.19 1.77-4.273-.434-2.127c-.0676458-.3291426.0345378-.6702554.272-.908l2.228-2.228c.2377255-.23677196.5783482-.33854566.907-.271l2.122.434z" fill="#bdc3c7"></path><circle id="Oval" cx="28" cy="22" fill="#7f8c8d" r="10"></circle><g fill="#b19046"><path id="Path" d="m44 49v2h-7c-.5522847 0-1-.4477153-1-1s.4477153-1 1-1z"></path><path id="Path" d="m33 51h-28c-.55228475 0-1-.4477153-1-1s.44771525-1 1-1h28c.5522847 0 1 .4477153 1 1s-.4477153 1-1 1z"></path><path id="Path" d="m12 55h-7c-.55228475 0-1-.4477153-1-1s.44771525-1 1-1h7c.5522847 0 1 .4477153 1 1s-.4477153 1-1 1z"></path><path id="Path" d="m44 53v2h-28c-.5522847 0-1-.4477153-1-1s.4477153-1 1-1z"></path></g><path id="Path" d="m0 52c.00440864 3.8641657 3.13583434 6.9955914 7 7h41c.5522847 0 1-.4477153 1-1s-.4477153-1-1-1h-41c-2.76142375 0-5-2.2385763-5-5s2.23857625-5 5-5h41c.5522847 0 1-.4477153 1-1s-.4477153-1-1-1h-41v-45h-1c-3.3137085 0-6 2.6862915-6 6z" fill="#c03a2b"></path></g></g></svg>